<?xml version="1.0" standalone="no"?>
<!DOCTYPE svg PUBLIC "-//W3C//DTD SVG 20010904//EN"
 "http://www.w3.org/TR/2001/REC-SVG-20010904/DTD/svg10.dtd">
<svg version="1.0" xmlns="http://www.w3.org/2000/svg"
 width="505.000000pt" height="505.000000pt" viewBox="0 0 505.000000 505.000000"
 preserveAspectRatio="xMidYMid meet">
<metadata>
Created by potrace 1.11, written by Peter Selinger 2001-2013
</metadata>
<g transform="translate(0.000000,505.000000) scale(0.100000,-0.100000)"
fill="#000000" stroke="none">
<path d="M3670 5038 c-78 -12 -148 -48 -198 -100 -48 -50 -66 -80 -83 -139 -7
-21 -17 -39 -23 -39 -6 -1 -28 -3 -48 -6 -33 -5 -47 1 -125 55 -48 33 -100 64
-115 70 -94 35 -189 -84 -139 -176 5 -11 100 -81 210 -157 111 -75 201 -140
201 -143 0 -3 -21 -37 -46 -74 l-47 -68 -44 26 c-37 21 -53 25 -102 21 -71 -5
-104 -27 -158 -105 -22 -32 -153 -222 -293 -423 -139 -201 -261 -381 -271
-400 -37 -68 -18 -156 48 -216 l37 -34 -45 -65 c-24 -35 -48 -65 -52 -65 -4 0
-19 7 -32 16 l-25 16 40 55 c22 31 37 59 34 64 -5 9 -154 113 -184 129 -14 7
-22 2 -42 -25 l-24 -34 -162 112 c-89 62 -162 116 -162 120 0 5 18 34 40 66
22 31 40 61 40 66 -1 6 -45 40 -100 78 l-99 67 -63 -88 -62 -89 -66 43 c-36
24 -76 45 -90 47 -76 12 -140 -63 -131 -153 2 -23 41 -63 98 -101 l52 -35 -60
-88 c-34 -48 -60 -89 -58 -90 17 -14 198 -136 203 -136 3 0 24 27 46 60 22 33
45 60 50 60 8 0 76 -45 263 -176 47 -33 64 -51 57 -58 -7 -7 -15 -7 -24 -1
-115 83 -232 155 -251 155 -43 0 -70 -20 -113 -83 -44 -65 -54 -116 -29 -148
7 -9 163 -121 347 -249 351 -244 366 -252 423 -221 20 11 71 79 95 126 20 40
3 84 -48 123 -45 35 -159 114 -189 132 -11 6 -9 14 10 39 13 17 29 29 35 27 7
-3 102 -67 211 -142 109 -76 234 -163 279 -193 44 -31 223 -155 397 -276 490
-340 659 -456 662 -453 1 2 31 46 66 98 l65 95 -23 22 c-49 47 -26 111 101
294 59 85 195 280 301 434 107 154 251 362 320 463 70 100 137 189 149 197 25
17 81 23 112 12 19 -7 30 5 88 90 l66 97 -40 25 c-22 15 -40 30 -40 34 0 5 10
22 21 39 26 35 29 96 6 128 -27 39 -215 160 -249 160 -27 0 -88 -27 -88 -40 0
-3 -9 -16 -19 -29 l-18 -23 -372 258 -372 258 39 19 c82 38 182 154 182 210 0
23 22 30 150 52 58 10 108 21 112 24 4 4 -2 60 -14 125 l-22 118 -45 -6 c-26
-3 -57 -8 -71 -11 -14 -3 -51 -10 -83 -15 l-57 -11 -28 32 c-15 18 -36 42 -47
52 -26 25 -117 68 -158 73 -18 3 -36 6 -42 8 -5 1 -35 -1 -65 -6z m153 -958
c114 -78 207 -146 207 -151 0 -10 -90 -139 -97 -139 -3 0 -22 10 -41 22 -45
28 -123 30 -172 5 -19 -9 -52 -41 -72 -70 -35 -48 -190 -270 -288 -412 -23
-33 -95 -137 -160 -232 -65 -94 -126 -185 -135 -202 -36 -71 -10 -172 56 -216
16 -11 29 -24 29 -29 0 -5 -20 -37 -45 -72 l-45 -63 -233 161 c-127 89 -234
162 -236 164 -2 2 18 35 44 73 l48 71 32 -20 c42 -26 105 -35 149 -20 41 13
96 56 96 73 0 12 -46 46 -293 215 -87 59 -135 98 -129 104 6 6 88 -45 221
-136 116 -80 215 -146 220 -146 10 0 41 39 41 51 0 3 -26 23 -57 45 -209 143
-368 257 -371 265 -11 29 65 -19 365 -230 39 -28 75 -51 80 -51 5 0 16 13 25
28 l17 29 -200 139 c-110 76 -208 144 -216 150 -9 6 -13 16 -9 23 5 7 27 -3
69 -33 34 -24 132 -92 217 -150 l155 -107 18 22 c9 12 17 26 17 33 0 6 -97 78
-216 160 -140 97 -212 152 -206 158 7 7 45 -14 109 -59 319 -225 335 -235 345
-222 18 28 30 51 26 54 -6 5 -122 85 -276 192 -106 73 -150 109 -143 116 7 7
20 2 43 -15 75 -56 388 -268 397 -268 5 0 16 11 24 24 20 30 36 16 -215 190
-109 75 -198 141 -198 147 0 18 20 9 87 -40 38 -27 133 -93 213 -148 l145 -99
19 24 c16 20 17 26 5 33 -8 4 -60 41 -116 81 -56 40 -147 104 -202 141 -92 62
-118 87 -91 87 6 0 37 -19 70 -42 32 -24 127 -90 211 -147 l153 -104 18 23
c10 13 17 27 16 31 -3 8 -125 94 -331 234 -63 43 -95 71 -89 77 6 6 87 -44
221 -136 116 -80 215 -146 221 -146 8 0 30 31 30 43 0 3 -96 71 -212 153 -117
81 -215 149 -217 151 -3 2 0 7 5 12 5 5 98 -53 224 -140 118 -82 217 -149 220
-149 3 0 13 13 23 29 l17 30 -202 141 c-112 78 -210 145 -218 150 -10 6 -12
12 -5 19 8 8 29 -2 70 -32 33 -24 131 -92 217 -150 l156 -107 21 29 21 29
-192 135 c-106 74 -203 141 -215 148 -22 13 -32 39 -15 39 4 0 35 -19 67 -43
33 -24 130 -91 216 -150 l157 -106 11 27 c32 76 18 146 -41 203 l-41 40 47 69
48 70 27 -18 c14 -10 119 -83 234 -162z m655 -454 c9 -9 -15 -51 -116 -196
-177 -255 -779 -1125 -815 -1177 -15 -24 -31 -43 -33 -43 -3 0 -55 35 -116 77
-61 43 -116 81 -121 85 -9 5 76 138 88 138 2 0 20 -10 40 -22 45 -26 117 -28
160 -6 34 18 75 55 75 67 0 7 -277 204 -387 276 -24 15 -43 32 -43 36 0 15 26
10 51 -9 39 -31 381 -263 393 -268 6 -2 19 9 29 25 l17 29 -163 113 c-89 62
-184 129 -212 147 -27 19 -52 36 -54 38 -1 1 0 7 4 13 4 7 23 -1 52 -21 26
-18 90 -63 145 -100 54 -36 126 -86 160 -110 35 -25 68 -48 75 -51 7 -4 20 5
32 22 l21 29 -167 118 c-93 65 -189 132 -215 148 -26 17 -48 37 -48 45 0 20
11 13 180 -105 85 -59 179 -124 209 -145 l54 -38 19 25 c11 13 18 29 16 34 -3
10 -90 73 -300 216 -118 79 -145 104 -118 104 6 0 105 -65 221 -145 115 -80
214 -145 218 -145 14 0 44 52 34 60 -12 11 -298 210 -365 255 -57 37 -76 62
-40 53 16 -5 126 -79 341 -231 l85 -59 23 27 24 27 -23 17 c-13 9 -102 71
-198 138 -228 158 -215 148 -206 161 5 9 18 4 44 -16 20 -16 117 -84 215 -151
144 -98 182 -120 193 -110 8 6 14 19 14 28 0 10 -83 73 -210 161 -116 80 -210
150 -210 157 0 7 2 13 5 13 3 0 63 -40 133 -88 70 -49 167 -117 217 -151 l89
-62 18 23 c10 13 18 26 18 30 0 5 -246 179 -410 290 -17 11 -22 19 -15 26 7 7
37 -9 90 -47 44 -31 142 -99 218 -150 131 -89 138 -93 152 -75 8 10 13 24 11
29 -1 6 -88 69 -192 141 -222 155 -241 170 -232 180 4 4 52 -23 105 -60 54
-37 153 -105 220 -151 l122 -84 22 31 c18 25 20 32 8 38 -8 5 -74 50 -146 102
-73 51 -164 115 -203 141 -63 43 -85 67 -62 67 5 0 58 -34 118 -76 157 -110
312 -214 320 -214 10 0 33 33 34 47 0 9 -245 186 -414 299 -17 12 -17 14 -3
19 10 4 36 -8 69 -32 149 -110 371 -254 378 -247 15 16 28 83 23 116 -7 47
-29 84 -63 110 -17 12 -30 26 -30 31 0 5 21 39 47 77 l47 69 111 -76 c60 -42
116 -81 123 -87z"/>
<path d="M1467 2808 c-27 -20 -28 -53 -4 -76 32 -28 623 -438 664 -460 29 -16
38 -15 57 4 43 42 34 50 -324 297 -187 130 -348 238 -358 241 -10 3 -26 0 -35
-6z"/>
<path d="M1380 2690 c-6 -12 -8 -29 -5 -39 6 -19 128 -106 567 -406 137 -94
165 -102 182 -52 13 36 1 48 -169 163 -71 49 -215 148 -320 221 -198 138 -233
154 -255 113z"/>
<path d="M1316 2594 c-22 -22 -20 -47 7 -71 12 -11 87 -65 167 -120 80 -55
221 -153 314 -218 200 -137 209 -142 236 -115 41 41 27 58 -135 168 -55 38
-154 106 -220 152 -349 242 -338 236 -369 204z"/>
<path d="M1258 2498 c-9 -7 -19 -23 -22 -35 -8 -27 4 -37 299 -240 429 -297
411 -286 439 -258 44 45 28 60 -369 331 -55 37 -104 72 -110 76 -36 30 -201
138 -210 138 -6 0 -18 -6 -27 -12z"/>
<path d="M1170 2375 c-14 -36 -6 -48 63 -96 115 -78 252 -173 327 -225 272
-191 298 -207 323 -200 28 7 42 35 32 64 -3 9 -81 68 -173 131 -92 63 -198
136 -237 163 -230 162 -271 188 -298 188 -20 0 -30 -7 -37 -25z"/>
<path d="M1106 2284 c-41 -41 -36 -45 304 -279 91 -63 170 -118 175 -122 6 -4
30 -21 55 -38 25 -16 65 -44 89 -62 54 -41 97 -44 113 -9 6 14 8 31 5 38 -4
12 -135 106 -442 317 -44 30 -117 81 -163 113 -86 61 -110 68 -136 42z"/>
<path d="M1037 2182 c-30 -33 -21 -58 36 -97 28 -20 147 -102 262 -182 315
-219 383 -263 399 -263 21 0 46 41 40 65 -3 11 -55 54 -115 95 -60 41 -172
118 -248 171 -259 180 -332 229 -345 229 -7 0 -20 -8 -29 -18z"/>
<path d="M960 2076 c-27 -33 -7 -59 110 -141 345 -243 572 -395 590 -395 28 0
54 43 41 67 -5 11 -92 76 -193 145 -257 178 -322 223 -410 284 -79 55 -116 66
-138 40z"/>
<path d="M892 1978 c-7 -7 -12 -24 -12 -39 0 -24 35 -51 337 -260 186 -129
344 -236 351 -237 8 -2 24 -1 38 2 18 5 24 13 24 34 0 32 -6 41 -45 68 -377
263 -647 444 -662 444 -11 0 -24 -5 -31 -12z"/>
<path d="M836 1880 c-22 -7 -35 -36 -29 -60 4 -13 617 -445 679 -478 14 -7 34
-10 44 -7 23 7 36 46 23 69 -5 9 -69 58 -143 109 -74 51 -223 154 -330 228
-107 74 -202 138 -210 141 -8 3 -24 2 -34 -2z"/>
<path d="M724 1780 c-28 -11 -84 -97 -84 -129 0 -49 4 -52 270 -236 25 -17 74
-51 110 -76 349 -243 338 -237 383 -225 39 9 97 90 97 136 0 43 -18 62 -134
141 -44 30 -87 59 -95 66 -9 7 -86 60 -171 119 -336 232 -323 226 -376 204z"/>
<path d="M817 1396 c-3 -7 -98 -148 -212 -311 -168 -243 -204 -300 -193 -311
7 -7 69 -51 138 -98 98 -69 126 -84 136 -74 22 24 425 610 422 613 -2 2 -19
15 -38 28 -271 185 -247 170 -253 153z"/>
<path d="M368 603 c-139 -193 -162 -234 -230 -411 -37 -97 -65 -178 -63 -180
2 -2 23 13 46 34 48 45 40 37 146 132 62 56 108 110 183 219 55 80 100 148
100 152 0 9 -108 87 -133 97 -9 3 -26 -11 -49 -43z"/>
</g>
</svg>
